# xmcd
#
# Track frame offsets:
#	150
#	14563
#	30225
#	47315
#	59113
#	77453
#	95698
#	114733
#	131883
#	149733
#	167190
#	188350
#	204450
#	223210
#	245493
#	261120
#
# Disc length: 3684 seconds
#
# Revision: 1
# Processed by: cddbd v1.5.1PL0 Copyright (c) Steve Scherf et al.
# Submitted via: CDex 1.50Beta5
#
DISCID=eb0e6210
DTITLE=石川セリ - 石川セリ NEW BEST
DYEAR=1993
DGENRE=
TTITLE0=八月の濡れた砂
TTITLE1=遠い海の記憶
TTITLE2=朝焼けが消える前に
TTITLE3=フワフワ WOW WOW
TTITLE4=SEXY
TTITLE5=ダンスはうまく踊れない
TTITLE6=気まぐれ
TTITLE7=ムーンライト・サーファー
TTITLE8=スノーキャンドル
TTITLE9=パール・スター
TTITLE10=ヘルミーネ
TTITLE11=BOY
TTITLE12=地下室のビーナス
TTITLE13=風と踊る
TTITLE14=キ・サ・ラ恋人
TTITLE15=彩・夏・夢
EXTD=
EXTT0=
EXTT1=
EXTT2=
EXTT3=
EXTT4=
EXTT5=
EXTT6=
EXTT7=
EXTT8=
EXTT9=
EXTT10=
EXTT11=
EXTT12=
EXTT13=
EXTT14=
EXTT15=
PLAYORDER=
